<?xml version="1.0" standalone="no"?>
<!DOCTYPE svg PUBLIC "-//W3C//DTD SVG 20010904//EN"
 "http://www.w3.org/TR/2001/REC-SVG-20010904/DTD/svg10.dtd">
<svg version="1.0" xmlns="http://www.w3.org/2000/svg"
 width="726.000000pt" height="726.000000pt" viewBox="0 0 726.000000 726.000000"
 preserveAspectRatio="xMidYMid meet">

<g transform="translate(0.000000,726.000000) scale(0.100000,-0.100000)"
fill="#000000" stroke="none">
<path d="M4550 6764 c-188 -20 -2744 -259 -3140 -294 -554 -49 -761 -69 -820
-80 -122 -23 -224 -103 -279 -220 l-26 -55 0 -1985 0 -1985 22 -71 c12 -38 37
-90 54 -115 18 -24 266 -329 553 -677 551 -672 566 -688 698 -746 150 -66 204
-70 688 -41 228 14 829 50 1335 80 2026 120 2263 135 2339 149 109 21 198 66
272 140 70 71 106 139 128 248 9 42 16 80 16 83 0 4 -89 5 -197 3 -164 -2
-197 -6 -201 -18 -12 -37 -68 -78 -122 -89 -67 -14 -3737 -231 -3902 -231
-171 0 -280 39 -362 131 -55 60 -75 114 -86 226 -13 130 -13 3510 0 3620 5 45
18 99 29 121 23 45 84 103 126 119 17 6 361 35 765 63 404 28 1367 96 2140
151 816 58 1426 98 1454 94 66 -8 114 -30 154 -68 52 -51 62 -102 62 -329 l0
-198 196 0 195 0 -3 373 -3 372 -32 65 c-44 90 -101 146 -250 243 -118 77
-343 238 -963 692 -250 184 -304 216 -388 234 -68 14 -293 12 -452 -5z m387
-309 c28 -8 75 -32 105 -52 102 -70 659 -477 699 -511 41 -36 50 -67 22 -76
-17 -5 -388 -34 -1153 -91 -342 -25 -1025 -76 -1275 -95 -1071 -81 -1523 -111
-1610 -107 -116 5 -184 27 -278 90 -103 69 -587 459 -587 473 0 33 -46 28
1155 134 374 33 851 76 1060 95 209 19 607 55 885 80 278 24 573 51 655 59
203 18 262 19 322 1z"/>
<path d="M4755 4708 c-432 -32 -456 -38 -502 -107 -44 -66 -21 -170 44 -200
16 -7 71 -17 123 -21 87 -8 97 -11 119 -37 l24 -28 -6 -665 c-4 -366 -7 -749
-7 -852 0 -104 -3 -188 -7 -188 -5 0 -46 60 -93 133 -327 512 -1016 1541
-1137 1699 -57 75 -107 115 -158 126 -27 6 -168 1 -411 -14 -432 -26 -507 -35
-543 -61 -63 -47 -82 -157 -36 -212 29 -34 64 -47 152 -56 39 -4 75 -15 95
-29 l33 -22 0 -1151 0 -1152 -21 -28 c-13 -18 -47 -39 -95 -58 -166 -66 -218
-193 -121 -294 29 -30 47 -41 84 -46 62 -9 758 42 824 61 145 40 182 246 54
296 -14 5 -60 13 -102 18 -93 9 -124 27 -137 77 -11 44 -20 1863 -9 1863 11 0
559 -807 1176 -1732 167 -250 284 -415 303 -429 42 -30 97 -34 293 -20 188 13
222 26 271 105 l30 49 5 1315 5 1314 23 18 c12 10 46 26 75 35 132 43 187 98
187 186 0 75 -40 124 -110 132 -19 3 -210 -8 -425 -25z"/>
<path d="M5923 4462 c-13 -12 -26 -69 -48 -210 l-29 -192 -147 0 c-81 0 -154
-3 -163 -6 -13 -5 -16 -25 -16 -120 0 -102 2 -114 19 -124 11 -5 77 -10 147
-10 l127 0 -6 -27 c-3 -16 -13 -83 -23 -150 l-19 -123 -120 0 c-165 0 -165 0
-165 -135 0 -127 -3 -125 145 -125 106 0 107 0 102 -22 -3 -13 -17 -101 -33
-197 -23 -146 -25 -174 -13 -182 18 -11 220 -11 238 0 9 6 23 74 42 197 16
104 29 192 29 197 0 4 70 7 155 7 154 0 155 0 155 -22 0 -13 -13 -101 -28
-195 -20 -118 -25 -176 -18 -183 15 -15 218 -13 240 3 14 10 23 54 44 202 l28
190 144 3 c85 1 149 7 157 14 17 14 18 219 1 236 -8 8 -53 12 -139 12 l-126 0
7 48 c4 26 13 93 20 150 l12 102 132 0 c72 0 137 4 144 8 9 7 12 39 10 128
l-3 119 -124 3 -123 3 5 32 c22 131 50 368 43 374 -13 13 -223 10 -236 -3 -7
-7 -25 -99 -42 -205 -16 -107 -31 -195 -33 -197 -1 -1 -72 -1 -156 0 l-155 3
29 192 c24 156 27 196 17 208 -19 23 -204 21 -227 -3z m457 -674 c0 -7 -9 -71
-20 -143 -11 -71 -20 -133 -20 -137 0 -5 -70 -8 -155 -8 -131 0 -155 2 -155
15 0 15 24 188 35 253 l6 32 154 0 c118 0 155 -3 155 -12z"/>
<path d="M5512 2538 c-9 -9 -12 -145 -12 -549 0 -480 2 -537 16 -543 30 -12
249 -7 262 6 7 7 12 38 12 69 0 48 -4 60 -22 73 -12 9 -37 16 -55 16 l-33 0 0
394 0 394 44 6 c51 8 65 21 73 69 4 27 1 39 -16 56 -19 19 -32 21 -139 21 -78
0 -122 -4 -130 -12z"/>
<path d="M6127 2525 c-18 -17 -72 -163 -95 -255 -11 -46 -16 -109 -16 -215 0
-172 20 -275 77 -398 36 -77 117 -191 147 -207 26 -14 114 -12 128 2 18 18 15
30 -33 115 -96 169 -139 365 -117 536 14 116 41 205 98 325 25 51 42 97 39
103 -4 5 -53 9 -110 9 -78 0 -107 -4 -118 -15z"/>
<path d="M6640 2519 c0 -11 22 -61 49 -110 118 -212 154 -386 117 -559 -20
-94 -69 -214 -121 -299 -25 -40 -45 -79 -45 -87 0 -20 39 -27 117 -20 80 6 97
21 156 140 103 205 130 394 82 581 -20 78 -93 222 -156 308 l-49 67 -75 0
c-69 0 -75 -2 -75 -21z"/>
</g>
</svg>
